<svg width="445" height="413" viewBox="0 0 445 413" fill="none" xmlns="http://www.w3.org/2000/svg">
<path d="M465.004 174.211L450.762 185.263L387.514 234.334L465.004 294.458V174.211Z" fill="#283677"/>
<path d="M403.935 0.00802075V94.7571L403.943 94.7651L465.004 47.3866V47.3786L403.943 0L403.935 0.00802075Z" fill="url(#paint0_linear_3_1017)"/>
<path d="M387.506 354.597L464.996 294.474V294.466L387.506 234.342H387.49V354.597H387.506Z" fill="url(#paint1_linear_3_1017)"/>
<path d="M232.494 474.852L232.502 474.86L309.992 414.737V414.721L232.502 354.597L232.494 354.605V474.852Z" fill="#00AE88"/>
<path d="M309.992 294.474L232.502 354.597L309.992 414.721V294.474Z" fill="#283677"/>
<path d="M310 414.729L387.49 354.605V354.597L310 294.466L309.992 294.474V414.721L310 414.729Z" fill="#0054A6"/>
<path d="M77.506 354.597L154.996 414.729V294.474L77.506 354.597Z" fill="#0054A6"/>
<path style="mix-blend-mode:multiply" opacity="0.3" d="M154.996 414.737V414.729L77.506 354.597L77.498 354.605V474.852L77.506 474.86L154.996 414.737Z" fill="url(#paint2_linear_3_1017)"/>
<path d="M0.00799561 414.729L77.498 474.852V354.605L0.00799561 414.729Z" fill="#283677"/>
<path d="M387.49 354.605V474.852L387.506 474.86L464.996 414.737V414.721L387.506 354.597L387.49 354.605Z" fill="#283677"/>
<path d="M309.992 414.737V534.984L310 534.992L387.49 474.868V474.852V354.605L310 414.729L309.992 414.737Z" fill="#1E2959"/>
<path d="M154.996 534.984L155.004 534.992L232.494 474.868L232.502 474.86L232.494 474.852V354.605L155.004 414.729L154.996 414.737V534.984Z" fill="#1E2959"/>
<path d="M154.996 294.474V294.466L77.506 234.342H77.498V354.597H77.506L154.996 294.474Z" fill="#0C2F43"/>
<path d="M443.353 157.407L464.996 174.203V53.9556L387.506 114.079L443.353 157.407Z" fill="#1E2959"/>
<path d="M387.506 114.079L387.49 114.087L310 174.211L387.49 234.334H387.498H387.49V234.342H387.506L450.754 185.263L464.996 174.219V294.466V294.474L387.506 354.597L464.996 414.721V414.737L465.004 414.729L542.494 474.852V354.613V354.605L542.502 354.597L542.494 354.589L465.004 294.466L542.486 234.35L465.004 174.227L465.012 174.219L465.004 174.211L464.996 174.203L443.353 157.407L387.506 114.079Z" fill="#0054A6"/>
<path d="M387.49 234.342V234.334L310 174.211H309.992V294.466H310L387.49 234.342Z" fill="#1E2959"/>
<path d="M387.49 354.605L387.506 354.597H387.49V354.605Z" fill="#092434"/>
<path d="M220.679 167.922L193.749 188.816L220.679 209.702V167.922Z" fill="#1E2959"/>
<path d="M61.0532 238.072L18.7678 270.885L61.0532 303.69V238.072Z" fill="#0054A6"/>
<path d="M77.498 234.334V234.342H77.506L77.498 234.334Z" fill="#092434"/>
<path d="M387.49 114.071V114.087L387.506 114.079L387.49 114.071Z" fill="#092434"/>
<path d="M77.498 354.597V354.605L77.506 354.597H77.498Z" fill="#092434"/>
<path d="M309.992 174.203V174.211H310L309.992 174.203Z" fill="#092434"/>
<path d="M232.494 234.342V354.597V354.605L232.502 354.597L309.992 294.474L310 294.466H309.992L232.502 234.342L232.494 234.334V234.342Z" fill="#1E2959"/>
<path d="M154.996 414.729H155.004L232.494 354.605L154.996 294.474V414.729Z" fill="#283677"/>
<path d="M154.996 294.249L232.494 354.156V234.318L154.996 294.249Z" fill="#0054A6"/>
<path d="M154.996 294.474L77.522 234.326L77.514 234.342L77.498 234.334V354.573L77.514 354.581L154.996 294.474Z" fill="#283677"/>
<path d="M310.144 415.034V415.01L232.662 354.902L232.654 354.91L232.646 354.902V475.141L232.654 475.149L310.144 415.034Z" fill="#0054A6"/>
<path d="M387.49 114.103L373.248 125.148L310 174.227L387.49 234.35V114.103Z" fill="url(#paint3_linear_3_1017)"/>
<path d="M409.133 130.867L387.498 114.079V234.326L464.988 174.203L409.133 130.867Z" fill="#0054A6"/>
<path d="M223.939 215.83L270.454 251.924V251.932V251.924V179.737L223.939 215.83Z" fill="#0054A6"/>
<defs>
<linearGradient id="paint0_linear_3_1017" x1="458.332" y1="94.9576" x2="387.565" y2="24.2843" gradientUnits="userSpaceOnUse">
<stop offset="0.13" stop-color="#1E2959"/>
<stop offset="0.18" stop-color="#17336B"/>
<stop offset="0.25" stop-color="#0F3F81"/>
<stop offset="0.33" stop-color="#084992"/>
<stop offset="0.44" stop-color="#034F9D"/>
<stop offset="0.59" stop-color="#0153A4"/>
<stop offset="1" stop-color="#0054A6"/>
</linearGradient>
<linearGradient id="paint1_linear_3_1017" x1="387.498" y1="294.466" x2="464.996" y2="294.466" gradientUnits="userSpaceOnUse">
<stop stop-color="#1E2959"/>
<stop offset="0.05" stop-color="#193167"/>
<stop offset="0.15" stop-color="#103E7E"/>
<stop offset="0.26" stop-color="#094890"/>
<stop offset="0.4" stop-color="#044F9D"/>
<stop offset="0.59" stop-color="#0153A4"/>
<stop offset="1" stop-color="#0054A6"/>
</linearGradient>
<linearGradient id="paint2_linear_3_1017" x1="51.8415" y1="449.162" x2="120.708" y2="380.387" gradientUnits="userSpaceOnUse">
<stop stop-color="white"/>
<stop offset="0.26" stop-color="#FDFDFD"/>
<stop offset="0.41" stop-color="#F5F5F5"/>
<stop offset="0.52" stop-color="#E7E7E7"/>
<stop offset="0.62" stop-color="#D4D4D4"/>
<stop offset="0.7" stop-color="#BBBBBB"/>
<stop offset="0.78" stop-color="#9C9C9C"/>
<stop offset="0.86" stop-color="#787877"/>
<stop offset="0.93" stop-color="#4E4E4D"/>
<stop offset="1" stop-color="#1C1C1B"/>
</linearGradient>
<linearGradient id="paint3_linear_3_1017" x1="313.621" y1="253.375" x2="402.897" y2="128.949" gradientUnits="userSpaceOnUse">
<stop offset="0.37" stop-color="#1E2959"/>
<stop offset="0.4" stop-color="#17336B"/>
<stop offset="0.46" stop-color="#0F3F81"/>
<stop offset="0.52" stop-color="#084992"/>
<stop offset="0.6" stop-color="#034F9D"/>
<stop offset="0.7" stop-color="#0153A4"/>
<stop offset="1" stop-color="#0054A6"/>
</linearGradient>
</defs>
</svg>
