<svg width="262" height="202" viewBox="0 0 262 202" fill="none" xmlns="http://www.w3.org/2000/svg">
<g clip-path="url(#clip0_8385_7896)">
<path d="M0 197.627L2.07227 197.424C2.19991 198.123 2.44769 198.634 2.83061 198.958C3.21353 199.289 3.72409 199.447 4.3773 199.447C5.06055 199.447 5.57862 199.304 5.93151 199.01C6.27689 198.717 6.45709 198.379 6.45709 197.988C6.45709 197.74 6.382 197.529 6.23935 197.349C6.09669 197.176 5.8339 197.018 5.47351 196.89C5.22573 196.8 4.65511 196.649 3.76914 196.431C2.62788 196.145 1.8245 195.799 1.35899 195.386C0.713283 194.807 0.38292 194.092 0.38292 193.258C0.38292 192.716 0.533085 192.213 0.840923 191.746C1.14876 191.28 1.58424 190.919 2.16237 190.679C2.74051 190.43 3.43127 190.31 4.24216 190.31C5.57111 190.31 6.56971 190.603 7.23794 191.182C7.90618 191.761 8.25906 192.543 8.2966 193.513L6.16426 193.611C6.07416 193.07 5.87895 192.679 5.57862 192.438C5.27829 192.198 4.8278 192.085 4.22714 192.085C3.60395 192.085 3.12343 192.213 2.77054 192.468C2.54529 192.634 2.43267 192.852 2.43267 193.122C2.43267 193.371 2.53778 193.589 2.74802 193.762C3.01831 193.987 3.67153 194.228 4.70767 194.468C5.7438 194.717 6.50964 194.965 7.01269 195.228C7.50824 195.491 7.89867 195.852 8.18398 196.303C8.46178 196.754 8.60444 197.318 8.60444 197.988C8.60444 198.589 8.43926 199.161 8.10139 199.695C7.76352 200.221 7.2905 200.62 6.67482 200.875C6.05915 201.131 5.29331 201.259 4.3773 201.259C3.04084 201.259 2.01221 200.951 1.29893 200.334C0.563118 199.71 0.142657 198.807 0 197.627Z" fill="white"/>
<path d="M17.0437 201.071V192.28H13.9053V190.49H22.2995V192.28H19.1685V201.071H17.0437Z" fill="white"/>
<path d="M27.9683 201.071V190.49H32.4582C33.5844 190.49 34.4103 190.588 34.9209 190.776C35.4315 190.964 35.8444 191.302 36.1522 191.791C36.4601 192.28 36.6102 192.829 36.6102 193.461C36.6102 194.258 36.3775 194.912 35.912 195.431C35.4465 195.95 34.7482 196.273 33.8247 196.408C34.2827 196.679 34.6656 196.972 34.9659 197.296C35.2663 197.619 35.6717 198.19 36.1823 199.01L37.4737 201.078H34.9209L33.3817 198.777C32.8336 197.957 32.4582 197.438 32.2555 197.22C32.0527 197.002 31.8425 196.859 31.6173 196.777C31.392 196.694 31.0316 196.656 30.5436 196.656H30.1081V201.071H27.9683ZM30.1006 194.964H31.6773C32.6985 194.964 33.3367 194.919 33.5919 194.837C33.8472 194.746 34.0424 194.604 34.1926 194.385C34.3353 194.175 34.4103 193.912 34.4103 193.588C34.4103 193.235 34.3127 192.942 34.125 192.724C33.9373 192.506 33.667 192.37 33.3216 192.31C33.1489 192.287 32.6309 192.272 31.7674 192.272H30.1006V194.964Z" fill="white"/>
<path d="M42.8945 201.071V190.49H50.7256V192.28H45.0269V194.626H50.3277V196.408H45.0269V199.288H50.9283V201.071H42.8945Z" fill="white"/>
<path d="M57.04 201.071V190.49H59.1123L63.4371 197.559V190.49H65.4192V201.071H63.2794L59.0222 194.167V201.071H57.04Z" fill="white"/>
<path d="M76.8693 197.175V195.393H81.4643V199.612C81.0139 200.04 80.3681 200.424 79.5197 200.755C78.6713 201.086 77.8153 201.251 76.9444 201.251C75.8407 201.251 74.8796 201.018 74.0537 200.552C73.2353 200.085 72.6121 199.424 72.1992 198.559C71.7862 197.694 71.5835 196.754 71.5835 195.739C71.5835 194.641 71.8163 193.656 72.2743 192.799C72.7323 191.942 73.408 191.287 74.3015 190.829C74.9772 190.475 75.8257 190.302 76.8318 190.302C78.1457 190.302 79.1668 190.58 79.9026 191.129C80.6384 191.678 81.1115 192.445 81.3292 193.415L79.2119 193.814C79.0617 193.295 78.7839 192.882 78.3709 192.581C77.958 192.28 77.4474 192.13 76.8318 192.13C75.9007 192.13 75.1574 192.423 74.6093 193.017C74.0612 193.611 73.7834 194.483 73.7834 195.649C73.7834 196.905 74.0612 197.845 74.6168 198.476C75.1724 199.108 75.9007 199.416 76.8092 199.416C77.2597 199.416 77.7027 199.326 78.1532 199.153C78.6037 198.98 78.9866 198.762 79.3095 198.514V197.175H76.8693Z" fill="white"/>
<path d="M90.0987 201.071V192.28H86.9678V190.49H95.3545V192.28H92.231V201.071H90.0987Z" fill="white"/>
<path d="M101.023 201.071V190.49H103.156V194.656H107.338V190.49H109.47V201.071H107.338V196.446H103.156V201.071H101.023Z" fill="white"/>
<path d="M123.901 195.844C123.901 194.769 124.059 193.859 124.381 193.13C124.622 192.588 124.952 192.107 125.365 191.678C125.778 191.25 126.236 190.934 126.731 190.723C127.392 190.445 128.151 190.302 129.006 190.302C130.561 190.302 131.807 190.784 132.746 191.754C133.684 192.724 134.15 194.07 134.15 195.792C134.15 197.499 133.684 198.837 132.761 199.8C131.837 200.762 130.591 201.243 129.044 201.243C127.475 201.243 126.221 200.762 125.297 199.807C124.359 198.852 123.901 197.529 123.901 195.844ZM126.093 195.769C126.093 196.965 126.371 197.875 126.919 198.491C127.467 199.108 128.173 199.416 129.021 199.416C129.87 199.416 130.568 199.108 131.116 198.499C131.664 197.882 131.935 196.965 131.935 195.739C131.935 194.528 131.672 193.626 131.139 193.024C130.606 192.43 129.907 192.13 129.021 192.13C128.136 192.13 127.437 192.43 126.897 193.032C126.364 193.641 126.093 194.551 126.093 195.769Z" fill="white"/>
<path d="M140.104 201.071V190.49H147.349V192.28H142.243V194.784H146.658V196.574H142.243V201.071H140.104Z" fill="white"/>
<path d="M161.735 201.071V190.49H164.926L166.84 197.709L168.74 190.49H171.939V201.071H169.956V192.739L167.862 201.071H165.804L163.717 192.739V201.071H161.735Z" fill="white"/>
<path d="M181.114 201.071V196.619L177.247 190.49H179.747L182.233 194.679L184.665 190.49H187.12L183.239 196.634V201.071H181.114Z" fill="white"/>
<path d="M200.635 201.071H198.315L197.392 198.664H193.172L192.301 201.071H190.041L194.156 190.49H196.408L200.635 201.071ZM196.708 196.882L195.252 192.957L193.825 196.882H196.708Z" fill="white"/>
<path d="M206.063 201.071V190.49H208.136L212.46 197.559V190.49H214.443V201.071H212.303L208.046 194.167V201.071H206.063Z" fill="white"/>
<path d="M220.952 201.071V190.49H224.143L226.058 197.709L227.95 190.49H231.148V201.071H229.166V192.739L227.071 201.071H225.022L222.934 192.739V201.071H220.952Z" fill="white"/>
<path d="M247.081 201.071H244.761L243.837 198.664H239.618L238.747 201.071H236.487L240.601 190.49H242.854L247.081 201.071ZM243.154 196.882L241.698 192.957L240.271 196.882H243.154Z" fill="white"/>
<path d="M252.502 201.071V190.49H256.992C258.118 190.49 258.944 190.588 259.455 190.776C259.965 190.964 260.378 191.302 260.686 191.791C260.994 192.28 261.151 192.829 261.151 193.461C261.151 194.258 260.919 194.912 260.453 195.431C259.988 195.95 259.289 196.273 258.366 196.408C258.831 196.679 259.207 196.972 259.507 197.296C259.807 197.619 260.213 198.19 260.724 199.01L262.015 201.078H259.462L257.923 198.777C257.375 197.957 256.999 197.438 256.797 197.22C256.594 197.002 256.384 196.859 256.158 196.777C255.933 196.694 255.573 196.656 255.085 196.656H254.649V201.071H252.502ZM254.634 194.964H256.211C257.232 194.964 257.87 194.919 258.126 194.837C258.381 194.746 258.584 194.604 258.726 194.385C258.869 194.175 258.944 193.912 258.944 193.588C258.944 193.235 258.846 192.942 258.659 192.724C258.471 192.506 258.201 192.37 257.855 192.31C257.683 192.287 257.165 192.272 256.301 192.272H254.634V194.964Z" fill="white"/>
<path d="M1.11133 147.914H11.0522V160.088L21.4587 147.914H34.6732L22.9378 160.073L35.1987 180.128H22.9603L16.1804 166.878L11.0447 172.263V180.121H1.11133V147.914Z" fill="white"/>
<path d="M38.5176 147.913H57.123C60.2239 147.913 62.604 148.68 64.2633 150.222C65.9227 151.763 66.7561 153.666 66.7561 155.937C66.7561 157.839 66.1629 159.478 64.9766 160.832C64.1883 161.742 63.032 162.464 61.5078 162.99C63.8204 163.547 65.5172 164.502 66.6059 165.855C67.6946 167.209 68.2427 168.916 68.2427 170.961C68.2427 172.631 67.8523 174.134 67.0789 175.465C66.3056 176.796 65.2469 177.849 63.8954 178.631C63.062 179.113 61.8006 179.466 60.1188 179.684C57.8813 179.977 56.3947 180.128 55.6664 180.128H38.5176V147.913ZM48.5411 160.546H52.8658C54.4125 160.546 55.4937 160.276 56.1019 159.742C56.71 159.208 57.0104 158.433 57.0104 157.426C57.0104 156.493 56.71 155.756 56.1019 155.23C55.4937 154.703 54.4351 154.44 52.9334 154.44H48.5486V160.546H48.5411ZM48.5411 173.202H53.6091C55.321 173.202 56.5299 172.894 57.2281 172.292C57.9339 171.683 58.2793 170.871 58.2793 169.841C58.2793 168.886 57.9339 168.119 57.2356 167.547C56.5374 166.968 55.321 166.682 53.5866 166.682H48.5411V173.202Z" fill="white"/>
<path d="M72.6348 147.913H100.761V154.35L82.7109 173.202H101.421V180.12H70.9004V173.443L88.7625 154.794H72.6348V147.913Z" fill="white"/>
<path d="M120.898 147.913H139.503C142.604 147.913 144.984 148.68 146.643 150.222C148.303 151.763 149.136 153.666 149.136 155.937C149.136 157.839 148.543 159.478 147.357 160.832C146.568 161.742 145.412 162.464 143.888 162.99C146.2 163.547 147.897 164.502 148.986 165.855C150.075 167.209 150.623 168.916 150.623 170.961C150.623 172.631 150.232 174.134 149.459 175.465C148.686 176.796 147.619 177.849 146.276 178.631C145.442 179.113 144.181 179.466 142.499 179.684C140.261 179.977 138.775 180.128 138.046 180.128H120.89V147.913H120.898ZM130.921 160.546H135.246C136.8 160.546 137.874 160.276 138.482 159.742C139.09 159.208 139.39 158.433 139.39 157.426C139.39 156.493 139.09 155.756 138.482 155.23C137.874 154.703 136.815 154.44 135.313 154.44H130.929V160.546H130.921ZM130.921 173.202H135.989C137.701 173.202 138.902 172.894 139.608 172.292C140.314 171.683 140.659 170.871 140.659 169.841C140.659 168.886 140.314 168.119 139.616 167.547C138.925 166.968 137.701 166.682 135.959 166.682H130.914V173.202H130.921Z" fill="white"/>
<path d="M174.875 174.804H163.59L162.021 180.12H151.877L163.965 147.906H174.807L186.888 180.12H176.481L174.875 174.804ZM172.81 167.841L169.259 156.26L165.745 167.841H172.81Z" fill="white"/>
<path d="M190.116 147.913H199.396L211.507 165.735V147.913H220.877V180.128H211.507L199.464 162.441V180.128H190.116V147.913Z" fill="white"/>
<path d="M227.515 147.913H237.456V160.088L247.862 147.913H261.077L249.341 160.073L261.602 180.128H249.364L242.584 166.878L237.448 172.262V180.12H227.507V147.913H227.515Z" fill="white"/>
<path d="M109.958 86.0713L127.07 56.3908L144.173 86.0713H156.982L127.055 33.9819L97.0142 86.0713H109.958Z" fill="white"/>
<path d="M163.274 97.0273H150.488L163.68 119.917H90.4443L103.636 97.0273H90.6995L71.043 131.114H182.856L163.274 97.0273Z" fill="white"/>
<path d="M127.054 0L71.043 97.1402H182.856L127.054 0ZM127.069 22.4089L163.68 85.9433H90.4443L127.069 22.4089Z" fill="white"/>
</g>
<defs>
<clipPath id="clip0_8385_7896">
<rect width="262" height="201.259" fill="white"/>
</clipPath>
</defs>
</svg>
