<svg width="444" height="415" viewBox="0 0 444 415" fill="none" xmlns="http://www.w3.org/2000/svg">
<g clip-path="url(#clip0_3_950)">
<path d="M-21.004 240.789L-6.762 229.737L56.486 180.666L-21.004 120.542V240.789Z" fill="#8E191B"/>
<path d="M40.0652 414.992V320.243L40.0572 320.235L-21.0041 367.613V367.621L40.0572 415L40.0652 414.992Z" fill="url(#paint0_linear_3_950)"/>
<path d="M56.494 60.4027L-20.996 120.526V120.534L56.494 180.658H56.51V60.4027H56.494Z" fill="#E01F26"/>
<path d="M211.506 -59.8524L211.498 -59.8604L134.008 0.26313V0.279186L211.498 60.4027L211.506 60.3947V-59.8524Z" fill="#00AE88"/>
<path d="M134.008 120.526L211.498 60.4027L134.008 0.27919V120.526Z" fill="#9C1C1F"/>
<path d="M134 0.271126L56.5101 60.3947V60.4027L134 120.534L134.008 120.526V0.279152L134 0.271126Z" fill="#E81D25"/>
<path d="M366.494 60.4027L289.004 0.271156V120.526L366.494 60.4027Z" fill="#ED1C24"/>
<path style="mix-blend-mode:multiply" opacity="0.3" d="M289.004 0.26313V0.271156L366.494 60.4027L366.502 60.3947V-59.8524L366.494 -59.8604L289.004 0.26313Z" fill="url(#paint1_linear_3_950)"/>
<path d="M443.992 0.271107L366.502 -59.8524V60.3947L443.992 0.271107Z" fill="#A11C20"/>
<path d="M56.51 60.3947V-59.8524L56.494 -59.8604L-20.996 0.26313V0.279186L56.494 60.4027L56.51 60.3947Z" fill="#A11C20"/>
<path d="M134.008 0.263077V-119.984L134 -119.992L56.5101 -59.8685V-59.8524V60.3947L134 0.271107L134.008 0.263077Z" fill="#57130B"/>
<path d="M134.008 0.263123L211.498 -59.8604L134.008 -119.984V0.263123Z" fill="#8E191B"/>
<path d="M-20.996 -119.984V0.263123L56.494 -59.8604L-20.996 -119.984Z" fill="#8E191B"/>
<path d="M289.004 -119.984L288.996 -119.992L211.506 -59.8685L211.498 -59.8604L211.506 -59.8524V60.3947L288.996 0.271107L289.004 0.263077V-119.984Z" fill="#57130B"/>
<path d="M366.494 -59.8604L289.004 -119.984V0.263123L366.494 -59.8604Z" fill="#ED1C24"/>
<path d="M289.004 120.526V120.534L366.494 180.658H366.502V60.4027H366.494L289.004 120.526Z" fill="#0C2F43"/>
<path d="M0.647404 257.593L-20.996 240.797V361.044L56.494 300.921L0.647404 257.593Z" fill="#9C1C1F"/>
<path d="M56.494 300.921L56.51 300.913L134 240.789L56.51 180.666H56.502H56.51V180.658H56.494L-6.75395 229.737L-20.996 240.781V120.534V120.526L56.494 60.4027L-20.996 0.279175V0.263123L-21.004 0.271149L-98.494 -59.8524V60.3867V60.3947L-98.502 60.4027L-98.494 60.4108L-21.004 120.534L-98.4859 180.65L-21.004 240.773L-21.012 240.781L-21.004 240.789L-20.996 240.797L0.6474 257.593L56.494 300.921Z" fill="#ED1C24"/>
<path d="M56.5101 180.658V180.666L134 240.789H134.008V120.534H134L56.5101 180.658Z" fill="#8E191B"/>
<path d="M134.008 0.279175V0.262582L134 0.270878L134.008 0.279175Z" fill="#092434"/>
<path d="M56.51 60.3944L56.4934 60.4027H56.51V60.3944Z" fill="#092434"/>
<path d="M223.321 247.078L250.251 226.184L223.321 205.297V247.078Z" fill="#9C1C1F"/>
<path d="M382.947 176.928L425.232 144.115L382.947 111.31V176.928Z" fill="#ED1C24"/>
<path d="M366.502 180.666V180.657H366.493L366.502 180.666Z" fill="#092434"/>
<path d="M289.004 0.271118V0.261827L288.995 0.271118H289.004Z" fill="#092434"/>
<path d="M444 0.261827L443.991 0.271118H444V0.261827Z" fill="#092434"/>
<path d="M56.51 300.929V300.912L56.4934 300.921L56.51 300.929Z" fill="#092434"/>
<path d="M366.502 60.4027V60.3934L366.493 60.4027H366.502Z" fill="#092434"/>
<path d="M134.008 240.797V240.788H133.999L134.008 240.797Z" fill="#092434"/>
<path d="M211.506 180.658V60.4027V60.3947L211.498 60.4027L134.008 120.526L134 120.534H134.008L211.498 180.658L211.506 180.666V180.658Z" fill="#57130B"/>
<path d="M289.004 0.271156H288.996L211.506 60.3947L289.004 120.526V0.271156Z" fill="#9C1C1F"/>
<path d="M289.004 120.526L211.506 60.3947V180.682L289.004 120.526Z" fill="#ED1C24"/>
<path d="M289.004 120.526L366.478 180.674L366.486 180.658L366.502 180.666V60.4268L366.486 60.4187L289.004 120.526Z" fill="#A11C20"/>
<path d="M133.856 -0.0336571V-0.00957108L211.338 60.0979L211.346 60.0899L211.354 60.0979V-60.1412L211.346 -60.1492L133.856 -0.0336571Z" fill="#E01F26"/>
<path d="M56.51 300.897L70.752 289.852L134 240.773L56.51 180.65V300.897Z" fill="url(#paint2_linear_3_950)"/>
<path d="M34.8666 284.133L56.502 300.921V180.674L-20.988 240.797L34.8666 284.133Z" fill="#ED1C24"/>
<path d="M220.061 199.17L173.546 163.076V163.068V163.076V235.263L220.061 199.17Z" fill="#ED1C24"/>
</g>
<defs>
<linearGradient id="paint0_linear_3_950" x1="-14.3316" y1="320.042" x2="56.4354" y2="390.716" gradientUnits="userSpaceOnUse">
<stop offset="0.13" stop-color="#540E1F"/>
<stop offset="0.16" stop-color="#671020"/>
<stop offset="0.21" stop-color="#861422"/>
<stop offset="0.27" stop-color="#A21823"/>
<stop offset="0.33" stop-color="#B81A24"/>
<stop offset="0.41" stop-color="#C91C25"/>
<stop offset="0.5" stop-color="#D41E26"/>
<stop offset="0.63" stop-color="#DB1F26"/>
<stop offset="1" stop-color="#DD1F26"/>
</linearGradient>
<linearGradient id="paint1_linear_3_950" x1="392.158" y1="-34.1619" x2="323.292" y2="34.613" gradientUnits="userSpaceOnUse">
<stop stop-color="white"/>
<stop offset="0.26" stop-color="#FDFDFD"/>
<stop offset="0.41" stop-color="#F5F5F5"/>
<stop offset="0.52" stop-color="#E7E7E7"/>
<stop offset="0.62" stop-color="#D4D4D4"/>
<stop offset="0.7" stop-color="#BBBBBB"/>
<stop offset="0.78" stop-color="#9C9C9C"/>
<stop offset="0.86" stop-color="#787877"/>
<stop offset="0.93" stop-color="#4E4E4D"/>
<stop offset="1" stop-color="#1C1C1B"/>
</linearGradient>
<linearGradient id="paint2_linear_3_950" x1="130.379" y1="161.625" x2="41.1026" y2="286.051" gradientUnits="userSpaceOnUse">
<stop offset="0.37" stop-color="#540E1F"/>
<stop offset="0.39" stop-color="#641120"/>
<stop offset="0.44" stop-color="#7F1622"/>
<stop offset="0.49" stop-color="#951923"/>
<stop offset="0.55" stop-color="#A61C25"/>
<stop offset="0.62" stop-color="#B11E25"/>
<stop offset="0.72" stop-color="#B82026"/>
<stop offset="1" stop-color="#BA2026"/>
</linearGradient>
<clipPath id="clip0_3_950">
<rect width="620" height="535" fill="white" transform="matrix(-1 0 0 -1 444 415)"/>
</clipPath>
</defs>
</svg>
